# xmcd
#
# Track frame offsets: 
#        150
#        22357
#        46408
#        50880
#        67368
#        83735
#        99698
#        138186
#        142917
#        171896
#        196559
#        236979
#        277274
#        294003
#
# Disc length: 4068 seconds
#
# Revision: 2
# Processed by: cddbd v1.5.2PL0 Copyright (c) Steve Scherf et al.
# Submitted via: ExactAudioCopyFreeDBPlugin 1.0
#
DISCID=d80fe20e
DTITLE=Eric Bibb - Live à FIP - CD 1
DYEAR=2009
DGENRE=Blues
TTITLE0=Kokomo
TTITLE1=Still Livin' On
TTITLE2=Spoken Introduction
TTITLE3=Got To Do Better
TTITLE4=Diamond Days
TTITLE5=Pockets
TTITLE6=Hold On
TTITLE7=Spoken Introduction
TTITLE8=Connected
TTITLE9=For You
TTITLE10=In My Father's House
TTITLE11=Needed Time
TTITLE12=Shingle By Shingle
TTITLE13=I Shall Not Be Moved
EXTD=
EXTT0=
EXTT1=
EXTT2=
EXTT3=
EXTT4=
EXTT5=
EXTT6=
EXTT7=
EXTT8=
EXTT9=
EXTT10=
EXTT11=
EXTT12=
EXTT13=
PLAYORDER=
